<svg width="60" height="60" viewBox="0 0 60 60" fill="none" xmlns="http://www.w3.org/2000/svg">
<path d="M30 0C13.44 0 0 13.44 0 30C0 46.56 13.44 60 30 60C46.56 60 60 46.56 60 30C60 13.44 46.56 0 30 0ZM30 54C16.77 54 6 43.23 6 30C6 16.77 16.77 6 30 6C43.23 6 54 16.77 54 30C54 43.23 43.23 54 30 54ZM41.64 18.87L24 36.51L18.36 30.87C17.7991 30.3091 17.0383 29.9939 16.245 29.9939C15.4517 29.9939 14.6909 30.3091 14.13 30.87C13.5691 31.4309 13.2539 32.1917 13.2539 32.985C13.2539 33.7783 13.5691 34.5391 14.13 35.1L21.9 42.87C23.07 44.04 24.96 44.04 26.13 42.87L45.9 23.1C46.1781 22.8225 46.3988 22.4928 46.5493 22.1299C46.6998 21.767 46.7773 21.3779 46.7773 20.985C46.7773 20.5921 46.6998 20.203 46.5493 19.8401C46.3988 19.4772 46.1781 19.1475 45.9 18.87C44.73 17.7 42.81 17.7 41.64 18.87Z" fill="#11BFAE"/>
</svg>
